<svg xmlns="http://www.w3.org/2000/svg" xmlns:xlink="http://www.w3.org/1999/xlink" viewBox="-115 -1055 1152 1152"><defs><pattern id="prefix__a" patternUnits="userSpaceOnUse" width="10" height="10"><path stroke="#ccc" fill="none" d="M0 0h9999v9999H0z"/></pattern><pattern id="prefix__b" patternUnits="userSpaceOnUse" width="50" height="50"><path stroke="#ccc" stroke-width="2" fill="url(#prefix__a)" d="M0 0h9999v9999H0z"/></pattern><pattern id="prefix__c" patternUnits="userSpaceOnUse" width="100" height="100"><path stroke="#ccc" stroke-width="4" fill="url(#prefix__b)" d="M0 0h9999v9999H0z"/></pattern><path id="prefix__d" stroke="#000" fill="url(#prefix__c)" d="M0-1000h1000V0H0z"/><path id="prefix__e" stroke="#000" fill="url(#prefix__c)" d="M0-70h70V0H0z"/><clipPath id="prefix__f"><use xlink:href="#prefix__d"/></clipPath><g id="prefix__g"><text transform="translate(550 -30)" y=".7ex" fill="#c0f"><tspan>1</tspan></text><path d="M0-10h1000" stroke="#c0f" stroke-dasharray="32 4 32 4 4 4 4 4" clip-path="url(#prefix__f)"/><text transform="translate(925 -45)" y=".7ex" fill="#00f"><tspan>log₂</tspan><tspan font-style="italic">n</tspan></text><path d="M10 0l10-10 10-6 10-4 10-3 10-3 10-2 10-2 10-2 10-1 10-2 10-1 10-1 10-1 10-1 10-1 10-1 10-1h10l10-1 10-1 10-1h10l10-1h10l10-1 10-1h10l10-1h10l10-1h20l10-1h10l10-1h20l10-1h10l10-1h20l10-1h20l10-1h30l10-1h20l10-1h30l10-1h30l10-1h40l10-1h40l10-1h40l10-1h40l10-1h50l10-1h50l10-1h60" stroke="#00f" stroke-dasharray="32 4 4 4 4 4" clip-path="url(#prefix__f)"/><text transform="translate(925 -125)" y=".7ex" fill="#09c"><tspan>√</tspan><tspan font-style="italic">n</tspan></text><path d="M0 0l10-10 10-4 10-3 10-3 10-2 10-2 10-2 10-2 10-2 10-2 10-1 10-2 10-1 10-1 10-2 10-1 10-1 10-1 10-2 10-1 10-1 10-1 10-1 10-1 10-1 10-1 10-1 10-1 10-1 10-1 10-1 10-1h10l10-1 10-1 10-1 10-1 10-1h10l10-1 10-1 10-1 10-1h10l10-1 10-1 10-1h10l10-1 10-1h10l10-1 10-1h10l10-1 10-1h10l10-1 10-1h10l10-1 10-1h10l10-1 10-1h10l10-1h10l10-1 10-1h10l10-1h10l10-1 10-1h10l10-1h10l10-1h10l10-1 10-1h10l10-1h10l10-1h10l10-1h10l10-1h10l10-1h10l10-1h10l10-1h10l10-1h10l10-1" stroke="#09c" stroke-dasharray="32 4 4 4 32 4" clip-path="url(#prefix__f)"/><text transform="translate(950 -1030)" y=".7ex" fill="#0c0"><tspan font-style="italic">n</tspan></text><path d="M0 0l10-10 10-10 10-10 10-10 10-10 10-10 10-10 10-10 10-10 10-10 10-10 10-10 10-10 10-10 10-10 10-10 10-10 10-10 10-10 10-10 10-10 10-10 10-10 10-10 10-10 10-10 10-10 10-10 10-10 10-10 10-10 10-10 10-10 10-10 10-10 10-10 10-10 10-10 10-10 10-10 10-10 10-10 10-10 10-10 10-10 10-10 10-10 10-10 10-10 10-10 10-10 10-10 10-10 10-10 10-10 10-10 10-10 10-10 10-10 10-10 10-10 10-10 10-10 10-10 10-10 10-10 10-10 10-10 10-10 10-10 10-10 10-10 10-10 10-10 10-10 10-10 10-10 10-10 10-10 10-10 10-10 10-10 10-10 10-10 10-10 10-10 10-10 10-10 10-10 10-10 10-10 10-10 10-10 10-10 10-10 10-10 10-10 10-10 10-10 10-10" stroke="#0c0" stroke-dasharray="32 4 4 4" clip-path="url(#prefix__f)"/><text transform="translate(310 -1030)" y=".7ex" fill="#f90"><tspan font-style="italic">n</tspan><tspan> log₂</tspan><tspan font-style="italic">n</tspan></text><path d="M10 0l10-20 10-28 10-32 10-36 10-39 10-42 10-43 10-45 10-47 10-49 10-49 10-51 10-52 10-53 10-54 10-55 10-56 10-56 10-57 10-58 10-59 10-59" stroke="#f90" stroke-dasharray="4 0" clip-path="url(#prefix__f)"/><text transform="translate(125 -1030)" y=".7ex" fill="red"><tspan font-style="italic">n</tspan><tspan>²</tspan></text><path d="M0 0l10-10 10-30 10-50 10-70 10-90 10-110 10-130 10-150 10-170 10-190 10-210" stroke="red" stroke-dasharray="32 8" clip-path="url(#prefix__f)"/><text transform="translate(73 -1030)" y=".7ex" fill="#c60"><tspan>2</tspan><tspan font-style="italic">ⁿ</tspan></text><path d="M0-10l10-10 10-20 10-40 10-80 10-160 10-320 10-640" stroke="#c60" stroke-dasharray="16 6" clip-path="url(#prefix__f)"/><text transform="translate(25 -1030)" y=".7ex"><tspan font-style="italic">n</tspan><tspan>!</tspan></text><path d="M0-10h10l10-10 10-40 10-180 10-960" stroke="#000" stroke-dasharray="4 4" clip-path="url(#prefix__f)"/></g></defs><g font-family="Helvetica,Arial,sans-serif" font-size="50" text-anchor="middle" stroke-linejoin="round" fill="none"><circle r="99999" fill="#fff"/><use xlink:href="#prefix__d"/><g fill="#666"><text x="550" y="40" font-style="italic" transform="translate(0 50)">n</text><text transform="translate(0 50)">0</text><text x="100" transform="translate(0 50)">10</text><text x="200" transform="translate(0 50)">20</text><text x="300" transform="translate(0 50)">30</text><text x="400" transform="translate(0 50)">40</text><text x="500" transform="translate(0 50)">50</text><text x="600" transform="translate(0 50)">60</text><text x="700" transform="translate(0 50)">70</text><text x="800" transform="translate(0 50)">80</text><text x="900" transform="translate(0 50)">90</text><text x="995" transform="translate(0 50)">100</text><g><text x="-50" y="-550" font-style="italic" transform="translate(-45 20)">N</text><text transform="translate(-45 20)">0</text><text y="-100" transform="translate(-45 20)">10</text><text y="-200" transform="translate(-45 20)">20</text><text y="-300" transform="translate(-45 20)">30</text><text y="-400" transform="translate(-45 20)">40</text><text y="-500" transform="translate(-45 20)">50</text><text y="-600" transform="translate(-45 20)">60</text><text y="-700" transform="translate(-45 20)">70</text><text y="-800" transform="translate(-45 20)">80</text><text y="-900" transform="translate(-45 20)">90</text><text y="-1000" transform="translate(-45 20)">100</text></g></g><use xlink:href="#prefix__g" stroke-width="4"/></g></svg>
